# xmcd CD database file
#
# Track frame offsets:
#	187
#	24017
#	40982
#	58442
#	80675
#	93510
#	109540
#	143632
#	171422
#	195205
#	234910
#	253240
#
# Disc length: 3830 seconds
#
# Revision: 1
# Processed by: cddbd v1.5.1PL0 Copyright (c) Steve Scherf et al.
# Submitted via: CDex 1.51
#
DISCID=990ef40c
DTITLE=usive - The Fabulous Thad Jones
DYEAR=1954
DGENRE=Jazz
TTITLE0=Elusive
TTITLE1=Chazzanova
TTITLE2=I'll Remenber April
TTITLE3=Bitty Ditty
TTITLE4=Sombre Intrusion
TTITLE5=You Don't Know What Love Is
TTITLE6=One More
TTITLE7=I Can't Get Started
TTITLE8=More Of The Same
TTITLE9=Get Out Of Town
TTITLE10=One More
TTITLE11=Get Out Of Town
EXTD=YEAR: 1954
EXTT0=
EXTT1=
EXTT2=
EXTT3=
EXTT4=
EXTT5=
EXTT6=
EXTT7=
EXTT8=
EXTT9=
EXTT10=
EXTT11=
PLAYORDER=
